<svg width="39" height="43" viewBox="0 0 39 43" fill="none" xmlns="http://www.w3.org/2000/svg">
<path fill-rule="evenodd" clip-rule="evenodd" d="M13.0489 40.1279C9.32492 39.0762 5.42609 38.5457 1.64397 38.0597C0.829355 37.9578 0.0730442 38.5264 0.0148577 39.3274C-0.101515 40.129 0.480691 40.8622 1.23712 40.9641C4.90286 41.4319 8.68465 41.9326 12.234 42.945C12.9904 43.1646 13.8054 42.7126 14.0381 41.9349C14.2709 41.1579 13.8053 40.348 13.0489 40.1279Z" fill="#262626"/>
<path fill-rule="evenodd" clip-rule="evenodd" d="M24.3365 25.2168C18.3433 19.0619 11.5937 13.6993 5.71685 7.3793C5.19318 6.78905 4.26219 6.75743 3.68033 7.30845C3.09846 7.86005 3.0405 8.78758 3.62237 9.37783C9.4992 15.716 16.2488 21.0961 22.242 27.2692C22.8239 27.8454 23.7547 27.8535 24.3365 27.2867C24.8602 26.7205 24.9184 25.793 24.3365 25.2168Z" fill="#262626"/>
<path fill-rule="evenodd" clip-rule="evenodd" d="M35.5672 1.54341C35.7417 5.06616 35.9159 8.58891 36.0905 12.1123C36.0905 12.9192 36.7891 13.5422 37.6037 13.503C38.4183 13.4631 38.9998 12.7763 38.9998 11.9688C38.8253 8.44018 38.651 4.91216 38.4765 1.38413C38.4183 0.577224 37.7199 -0.0417174 36.9053 0.00219986C36.1489 0.0461172 35.509 0.737085 35.5672 1.54341Z" fill="#262626"/>
</svg>
