<svg width="79" height="28" viewBox="0 0 79 28" fill="none" xmlns="http://www.w3.org/2000/svg">
<g clip-path="url(#clip0_7_7038)">
<path d="M9.1025 3.5H0.56543V23.9167L9.1025 3.5Z" fill="#4C4C4D"/>
<path d="M15.1094 3.5H23.6353V23.9167L15.1094 3.5Z" fill="#4C4C4D"/>
<path d="M12.1059 11.0254L17.5396 23.9172H13.9746L12.3506 19.8127H8.37402L12.1059 11.0254Z" fill="#4C4C4D"/>
<path d="M37.5634 16.4822L38.5701 19.3687C38.6034 19.441 38.6535 19.4744 38.7425 19.4744H40.6779C40.7836 19.4744 40.8003 19.4243 40.7836 19.3187L36.7848 8.21212C36.7681 8.12313 36.7514 8.10645 36.6624 8.10645H34.2598C34.1931 8.10645 34.1541 8.1565 34.1541 8.2288C34.1208 8.81277 34.0707 8.99074 33.9984 9.16315L30.4334 19.302C30.4167 19.4243 30.4557 19.4744 30.5558 19.4744H32.2854C32.3911 19.4744 32.4412 19.441 32.4801 19.3353L33.4311 16.4822H37.5634ZM33.9817 14.5968C34.5045 13.0173 35.1942 10.9929 35.4722 9.83611H35.4889C35.8338 11.0485 36.6457 13.4512 37.0128 14.5968H33.9817Z" fill="#4C4C4D"/>
<path d="M45.9241 19.6466C46.9641 19.6466 48.0709 19.4576 49.1943 18.9737C49.2833 18.9403 49.3 18.9014 49.3 18.818C49.2666 18.5065 49.2277 18.056 49.2277 17.7112V7.25538C49.2277 7.18864 49.2277 7.15527 49.1443 7.15527H47.2589C47.1866 7.15527 47.1532 7.18864 47.1532 7.27763V10.8204C46.8585 10.787 46.6527 10.7703 46.408 10.7703C43.3658 10.7703 41.4971 12.7781 41.4971 15.2863C41.4971 18.1951 43.4158 19.6466 45.9241 19.6466ZM47.1532 17.7112C46.8418 17.8113 46.497 17.8502 46.1466 17.8502C44.7673 17.8502 43.6383 17.0716 43.6383 15.1807C43.6383 13.5066 44.8007 12.5167 46.3412 12.5167C46.6527 12.5167 46.9252 12.55 47.1532 12.639V17.7112Z" fill="#4C4C4D"/>
<path d="M55.314 10.7715C52.7167 10.7715 51.1094 12.7625 51.1094 15.2208C51.1094 17.4176 52.3885 19.6478 55.275 19.6478C57.7166 19.6478 59.4295 17.8514 59.4295 15.1652C59.4295 12.7959 57.978 10.7715 55.314 10.7715ZM55.2083 12.5178C56.6765 12.5178 57.2994 13.7803 57.2994 15.2208C57.2994 17.0005 56.3818 17.8848 55.314 17.8848C53.9958 17.8848 53.2172 16.778 53.2172 15.1818C53.2172 13.5412 54.0459 12.5178 55.2083 12.5178Z" fill="#4C4C4D"/>
<path d="M61.3792 7.15527C61.3069 7.15527 61.2568 7.18864 61.2568 7.27763V19.1127C61.2568 19.1628 61.3069 19.2518 61.3792 19.2685C62.2079 19.5243 63.0755 19.6466 63.9709 19.6466C66.5348 19.6466 69.0264 18.056 69.0264 14.8525C69.0264 12.5333 67.4358 10.7703 64.9442 10.7703C64.3713 10.7703 63.8374 10.8593 63.3702 11.015L63.348 7.29431C63.348 7.17196 63.3146 7.15527 63.1923 7.15527H61.3792ZM66.8963 15.0639C66.8963 16.9826 65.5838 17.8836 64.1656 17.8836C63.8708 17.8836 63.6094 17.8669 63.3702 17.7946V12.7447C63.6428 12.639 63.9709 12.55 64.5771 12.55C65.9453 12.55 66.8963 13.4176 66.8963 15.0639Z" fill="#4C4C4D"/>
<path d="M76.0632 15.6879C76.9086 15.6879 77.6038 15.6713 77.8429 15.6156C77.9319 15.599 77.9653 15.5656 77.982 15.4933C78.032 15.3042 78.0543 14.9093 78.0543 14.4255C78.0543 12.7792 77.0643 10.7715 74.506 10.7715C71.892 10.7715 70.4404 12.9016 70.4404 15.3042C70.4404 17.4343 71.5639 19.6478 74.7117 19.6478C75.8908 19.6478 76.6527 19.4587 77.309 19.1473C77.3757 19.1139 77.4091 19.0583 77.4091 18.9582V17.5177C77.4091 17.4343 77.3591 17.4176 77.309 17.451C76.6527 17.7291 75.9409 17.8681 75.1622 17.8681C73.3992 17.8681 72.5983 16.8948 72.5483 15.6879H76.0632ZM72.5483 14.1974C72.6873 13.3521 73.2212 12.4344 74.417 12.4344C75.7351 12.4344 76.0799 13.5412 76.0799 14.0417C76.0799 14.0584 76.0799 14.1307 76.0799 14.1808C76.0076 14.1974 75.7851 14.1974 75.1289 14.1974H72.5483Z" fill="#4C4C4D"/>
</g>
<defs>
<clipPath id="clip0_7_7038">
<rect width="77.5833" height="28" fill="white" transform="translate(0.56543)"/>
</clipPath>
</defs>
</svg>
