<svg width="58" height="28" viewBox="0 0 58 28" fill="none" xmlns="http://www.w3.org/2000/svg">
<g clip-path="url(#clip0_7_7029)">
<path fill-rule="evenodd" clip-rule="evenodd" d="M46.5555 12.0164C46.7738 12.393 46.8452 12.8215 46.8688 13.3032L46.8997 13.9453V18.435L46.9314 19.0778C46.9947 20.1275 47.7689 20.9036 48.8266 20.9696L49.466 21.0013V13.9453L49.4977 13.3032C49.5239 12.8269 49.5947 12.3903 49.8163 12.011C50.0422 11.6219 50.3665 11.2991 50.7565 11.075C51.1466 10.8509 51.5888 10.7333 52.0386 10.7342C52.4885 10.735 52.9302 10.8541 53.3195 11.0797C53.7088 11.3052 54.0318 11.6292 54.2563 12.019C54.4746 12.3957 54.5426 12.8322 54.5689 13.3032L54.6006 13.9432V18.435L54.6322 19.0778C54.6982 20.1329 55.4663 20.909 56.5274 20.9696L57.1668 21.0013V13.3032C57.1668 11.942 56.6262 10.6364 55.6638 9.67371C54.7015 8.71098 53.3962 8.16985 52.035 8.16932C51.3064 8.16855 50.586 8.32327 49.9221 8.62314C49.2581 8.92302 48.6657 9.36114 48.1846 9.90823C47.7032 9.36135 47.1108 8.92334 46.4469 8.62338C45.7829 8.32341 45.0627 8.16839 44.3342 8.16864C43.2683 8.16864 42.2793 8.49204 41.46 9.05057C40.9601 8.49271 39.8417 8.16864 39.1996 8.16864V21.0013L39.8417 20.9696C40.9156 20.8989 41.6918 20.1436 41.7335 19.0778L41.7679 18.435V13.9453L41.7996 13.3032C41.8265 12.8188 41.8939 12.393 42.1128 12.0137C42.3389 11.6248 42.663 11.3021 43.0528 11.0777C43.4426 10.8533 43.8844 10.7351 44.3342 10.7349C44.7843 10.735 45.2264 10.8535 45.6163 11.0784C46.0062 11.3033 46.3301 11.6268 46.5555 12.0164ZM2.62583 20.9703L3.2679 21.0013H12.8922L12.8606 20.3613C12.7736 19.3062 12.0265 18.5354 10.968 18.4667L10.326 18.435H4.55204L12.2502 10.7342L12.2185 10.0949C12.1686 9.02901 11.3898 8.25893 10.326 8.20031L9.68389 8.17134L0.0595703 8.16864L0.0912359 8.81072C0.175453 9.85568 0.933406 10.6426 1.98309 10.7032L2.62583 10.7349H8.39975L0.701641 18.4357L0.733307 19.0778C0.796638 20.1356 1.55998 20.9016 2.62583 20.9696V20.9703ZM36.6805 10.047C37.2764 10.6428 37.7492 11.3502 38.0717 12.1287C38.3942 12.9072 38.5602 13.7416 38.5602 14.5843C38.5602 15.427 38.3942 16.2614 38.0717 17.0399C37.7492 17.8184 37.2764 18.5258 36.6805 19.1216C35.4765 20.3246 33.8442 21.0003 32.1422 21.0003C30.4402 21.0003 28.8079 20.3246 27.6039 19.1216C25.0983 16.616 25.0983 12.5526 27.6039 10.047C28.1993 9.45142 28.9062 8.97893 29.6842 8.65652C30.4622 8.33411 31.296 8.1681 32.1382 8.16797C32.9817 8.16738 33.8171 8.3331 34.5965 8.65564C35.3759 8.97818 36.0841 9.45122 36.6805 10.0477V10.047ZM34.8648 11.8641C35.5865 12.5863 35.9919 13.5656 35.9919 14.5867C35.9919 15.6077 35.5865 16.587 34.8648 17.3092C34.1425 18.0309 33.1633 18.4364 32.1422 18.4364C31.1212 18.4364 30.1419 18.0309 29.4197 17.3092C28.6979 16.587 28.2925 15.6077 28.2925 14.5867C28.2925 13.5656 28.6979 12.5863 29.4197 11.8641C30.1419 11.1424 31.1212 10.737 32.1422 10.737C33.1633 10.737 34.1425 11.1424 34.8648 11.8641ZM18.6715 8.16797C19.5137 8.16819 20.3476 8.33431 21.1256 8.65683C21.9036 8.97936 22.6105 9.45198 23.2058 10.0477C25.7121 12.5526 25.7121 16.6166 23.2058 19.1216C22.0018 20.3246 20.3695 21.0003 18.6675 21.0003C16.9655 21.0003 15.3332 20.3246 14.1292 19.1216C11.6236 16.616 11.6236 12.5526 14.1292 10.047C14.7246 9.45142 15.4315 8.97893 16.2094 8.65652C16.9874 8.33411 17.8213 8.1681 18.6635 8.16797H18.6715ZM21.3901 11.8627C22.112 12.585 22.5175 13.5644 22.5175 14.5856C22.5175 15.6069 22.112 16.5863 21.3901 17.3086C20.6678 18.0303 19.6885 18.4357 18.6675 18.4357C17.6465 18.4357 16.6672 18.0303 15.9449 17.3086C15.2232 16.5863 14.8178 15.607 14.8178 14.586C14.8178 13.5649 15.2232 12.5857 15.9449 11.8634C16.6672 11.1417 17.6465 10.7363 18.6675 10.7363C19.6885 10.7363 20.6678 11.1417 21.3901 11.8634V11.8627Z" fill="#4C4C4D"/>
</g>
<defs>
<clipPath id="clip0_7_7029">
<rect width="57.1666" height="28" fill="white" transform="translate(0.0595703)"/>
</clipPath>
</defs>
</svg>
